<svg width="48" height="48" viewBox="0 0 48 48" fill="none" xmlns="http://www.w3.org/2000/svg">
<path d="M45 4.49476L32.9895 4.49481V1.50531C32.9895 0.67656 32.3182 0.00531006 31.4895 0.00531006C30.6607 0.00531006 29.9895 0.67656 29.9895 1.50531V4.49406H17.9895V1.50531C17.9895 0.67656 17.3183 0.00531006 16.4895 0.00531006C15.6608 0.00531006 14.9895 0.67656 14.9895 1.50531V4.49406H3C1.34325 4.49406 0 5.83731 0 7.49406V44.9941C0 46.6508 1.34325 47.9941 3 47.9941H45C46.6567 47.9941 48 46.6508 48 44.9941V7.49406C48 5.83801 46.6567 4.49476 45 4.49476ZM45 44.9941H3V7.49406H14.9895V9.00531C14.9895 9.83401 15.6608 10.5053 16.4895 10.5053C17.3183 10.5053 17.9895 9.83401 17.9895 9.00531V7.49481H29.9895V9.00606C29.9895 9.83481 30.6607 10.5061 31.4895 10.5061C32.3182 10.5061 32.9895 9.83481 32.9895 9.00606V7.49481H45V44.9941ZM34.5 23.9948H37.5C38.328 23.9948 39 23.3228 39 22.4948V19.4948C39 18.6668 38.328 17.9948 37.5 17.9948H34.5C33.672 17.9948 33 18.6668 33 19.4948V22.4948C33 23.3228 33.672 23.9948 34.5 23.9948ZM34.5 35.994H37.5C38.328 35.994 39 35.3228 39 34.494V31.494C39 30.666 38.328 29.994 37.5 29.994H34.5C33.672 29.994 33 30.666 33 31.494V34.494C33 35.3235 33.672 35.994 34.5 35.994ZM25.5 29.994H22.5C21.672 29.994 21 30.666 21 31.494V34.494C21 35.3228 21.672 35.994 22.5 35.994H25.5C26.328 35.994 27 35.3228 27 34.494V31.494C27 30.6668 26.328 29.994 25.5 29.994ZM25.5 17.9948H22.5C21.672 17.9948 21 18.6668 21 19.4948V22.4948C21 23.3228 21.672 23.9948 22.5 23.9948H25.5C26.328 23.9948 27 23.3228 27 22.4948V19.4948C27 18.666 26.328 17.9948 25.5 17.9948ZM13.5 17.9948H10.5C9.672 17.9948 9 18.6668 9 19.4948V22.4948C9 23.3228 9.672 23.9948 10.5 23.9948H13.5C14.328 23.9948 15 23.3228 15 22.4948V19.4948C15 18.666 14.328 17.9948 13.5 17.9948ZM13.5 29.994H10.5C9.672 29.994 9 30.666 9 31.494V34.494C9 35.3228 9.672 35.994 10.5 35.994H13.5C14.328 35.994 15 35.3228 15 34.494V31.494C15 30.6668 14.328 29.994 13.5 29.994Z" fill="#05396B"/>
</svg>
