<svg width="95" height="102" viewBox="0 0 95 102" fill="none" xmlns="http://www.w3.org/2000/svg">
<path fill-rule="evenodd" clip-rule="evenodd" d="M60.9581 16.1914C58.3366 12.0455 55.0886 10.1735 51.4263 9.78149C54.6935 11.4869 57.9029 13.5941 60.9581 16.1914ZM14.8315 23.4246C12.0943 24.3655 9.35718 25.0614 6.6875 25.326C6.6875 50.8971 6.6875 76.4486 6.6875 102.01C22.108 100.765 52.7852 80.7218 60.3027 91.7088C53.0358 79.7025 31.0905 69.9406 14.8315 69.6662V23.4246Z" fill="#00205B"/>
<path fill-rule="evenodd" clip-rule="evenodd" d="M60.9592 16.1914C56.7475 9.47767 50.6082 6.89998 43.4955 6.39032C49.4227 8.40935 55.4367 11.4967 60.9592 16.1914ZM14.8326 10.0265C9.71492 10.9478 4.69362 11.6927 0 11.6927C0 37.2638 0 62.8152 0 88.3765C16.2108 88.6901 51.8997 79.4477 60.1882 91.5128C52.796 79.6045 31.0049 69.9406 14.8326 69.6662V10.0265Z" fill="#1C79C0"/>
<path fill-rule="evenodd" clip-rule="evenodd" d="M60.9603 16.1914C47.8239 0.225426 30.3987 -0.0294034 9.35938 -1.17463e-07C9.35938 25.5613 9.35938 51.1225 9.35938 76.6838C24.5004 76.9778 49.0286 78.4382 58.4544 89.0724C49.8189 78.3108 29.8879 69.921 14.8337 69.6662C14.8337 46.9473 14.8337 25.7573 14.8337 3.04814C25.0401 2.40127 45.0579 2.6757 60.9603 16.1914Z" fill="#0DD3FF"/>
<path d="M68.3434 15.1682L62.9766 30.2147L77.7724 35.6725L83.1392 20.626L68.3434 15.1682Z" fill="#FBB03B"/>
<path d="M56.2082 34.1176L65.7014 37.6166L62.2607 47.2903L52.7578 43.7717L56.2082 34.1176Z" fill="#00205B"/>
<path d="M64.9381 51.1617L77.3998 55.7486L72.8797 68.4312L60.418 63.8345L64.9381 51.1617Z" fill="#00205B"/>
<path d="M84.9105 37.6754L95.0013 41.3998L91.339 51.6518L81.2578 47.947L84.9105 37.6754Z" fill="#0DD3FF"/>
<path d="M40.9904 43.2032L47.4478 45.5849L45.1058 52.1516L38.6484 49.77L40.9904 43.2032Z" fill="#0DD3FF"/>
<path d="M48.3537 54.4255L54.8014 56.8071L52.4691 63.3739L46.0117 61.002L48.3537 54.4255Z" fill="#FBB03B"/>
<path d="M31.8299 55.928L30.4023 59.9366L34.3441 61.3883L35.7716 57.3797L31.8299 55.928Z" fill="#00205B"/>
</svg>
