<svg width="134" height="83" viewBox="0 0 134 83" fill="none" xmlns="http://www.w3.org/2000/svg">
<path fill-rule="evenodd" clip-rule="evenodd" d="M63.9632 71.5789L66.9824 67.9735C66.9824 67.9735 56.262 59.5525 40.3871 52.5321C24.5123 45.5117 16.7148 45.503 16.7148 45.503L17.6162 55.61L52.569 64.9561L18.2813 63.1146L63.9632 71.5789Z" fill="#0DD3FF"/>
<path fill-rule="evenodd" clip-rule="evenodd" d="M1.27657 67.8698L66.9814 80.8645L132.712 67.8611C133.29 67.7487 133.859 68.1205 133.981 68.6911V68.6998C134.095 69.2704 133.719 69.8237 133.133 69.9448L67.2264 82.9741C67.0776 83 66.9289 83.0086 66.7801 82.9827L0.856503 69.9534C0.278917 69.841 -0.0973891 69.2791 0.0163779 68.6998C0.138896 68.1378 0.707731 67.766 1.27657 67.8698Z" fill="#00205B"/>
<path fill-rule="evenodd" clip-rule="evenodd" d="M66.9798 80.8645C66.9798 78.7463 66.9798 70.0831 66.9798 67.9649C47.7444 63.9705 27.8527 59.6908 8.6173 55.6965L3.66406 68.3453L66.9798 80.8645Z" fill="#1C79C0"/>
<path fill-rule="evenodd" clip-rule="evenodd" d="M70.0084 71.5789L66.9805 67.9735C66.9805 67.9735 77.7008 59.5525 93.5757 52.5321C109.451 45.503 117.248 45.503 117.248 45.503L116.347 55.61L81.4114 64.9475L115.699 63.1059L70.0084 71.5789Z" fill="#0DD3FF"/>
<path fill-rule="evenodd" clip-rule="evenodd" d="M66.9805 80.8645C66.9805 78.7463 66.9805 70.0831 66.9805 67.9649C86.2158 63.9705 106.116 59.6908 125.343 55.6965L130.296 68.3453L66.9805 80.8645Z" fill="#1C79C0"/>
<path fill-rule="evenodd" clip-rule="evenodd" d="M76.1863 58.4804V9.81302L57.8086 0V58.4977C58.92 59.1634 60.0139 59.8551 61.1078 60.5468C63.0594 61.7918 65.0809 63.1232 66.9887 64.5152C68.8965 63.1232 70.918 61.7918 72.8696 60.5468C73.9548 59.8465 75.0662 59.1548 76.1863 58.4804Z" fill="#FBB03B"/>
<path fill-rule="evenodd" clip-rule="evenodd" d="M56.3573 57.6331V21.0094L38.8984 32.7331V48.8922C39.7823 49.264 40.6487 49.6444 41.5238 50.0161C46.5908 52.2641 51.5616 54.8232 56.3573 57.6331Z" fill="#FBB03B"/>
<path fill-rule="evenodd" clip-rule="evenodd" d="M77.3867 32.1193V57.7628C82.2437 54.8924 87.2932 52.2986 92.4477 50.0161C93.2441 49.6703 94.0405 49.3245 94.8368 48.9873V41.8458L77.3867 32.1193Z" fill="#FBB03B"/>
</svg>
