<svg width="73" height="90" viewBox="0 0 73 90" fill="none" xmlns="http://www.w3.org/2000/svg">
<g clip-path="url(#clip0_2059_1777)">
<path d="M15.1657 1.06656L13.832 5.02545L24.8911 8.8076L26.2248 4.84871L15.1657 1.06656Z" fill="#CCCCCC"/>
<path fill-rule="evenodd" clip-rule="evenodd" d="M8.85983 45.547L23.2085 2.95007L22.3747 2.66353C21.7284 4.58466 19.6278 5.63314 17.7146 4.9754C15.8079 4.32417 14.7738 2.20767 15.4266 0.286541L14.5928 0L0.237715 42.597C-0.570204 44.987 0.716003 47.6049 3.08159 48.4124C5.4601 49.2265 8.05191 47.937 8.85983 45.547Z" fill="#A87019"/>
<path fill-rule="evenodd" clip-rule="evenodd" d="M22.376 2.66352L8.02738 45.2605C7.38104 47.1881 5.28045 48.2301 3.3673 47.5724C1.45415 46.9211 0.426472 44.8046 1.07927 42.8835L15.4279 0.28653C14.7816 2.20766 15.8093 4.32416 17.7159 4.97539C19.6291 5.63313 21.7297 4.58465 22.376 2.66352Z" fill="#E6E6E6"/>
<path fill-rule="evenodd" clip-rule="evenodd" d="M7.39309 49.8842L3.08203 48.4124C5.45408 49.2265 8.05235 47.9305 8.85381 45.547L23.2025 2.95007L72.1624 19.6932L57.8137 62.2902C57.0058 64.6802 54.414 65.9696 52.0419 65.1556L7.39309 49.8842Z" fill="#FBB03B"/>
<path d="M17.211 14.5354L18.2969 11.3249L14.5546 10.042L15.3754 12.1129L13.4688 13.259L17.211 14.5354Z" fill="#1C79C0"/>
<path d="M19.4785 59.7503C19.7112 60.636 20.0538 61.4956 20.5579 62.2641C22.6391 65.4226 24.856 68.4899 27.1441 71.492C27.9584 72.5666 28.5918 73.6932 28.4432 75.1194C28.4238 75.2952 28.469 75.4841 28.4949 75.6664C28.915 78.6425 29.3545 81.6121 29.7617 84.5883C30.0073 86.3922 30.2271 88.1961 30.4598 90H45.4871C44.7373 86.7048 44.0199 83.3965 43.2572 80.1078C42.7337 77.835 42.8306 75.6013 43.4317 73.3676C43.9035 71.6288 44.705 70.0658 45.765 68.6201C47.5489 66.1845 49.0225 63.5861 49.8175 60.636C50.3669 58.5977 51.3881 56.8198 52.7971 55.2634C53.9476 53.987 55.2855 52.8994 56.4231 51.61C57.1276 50.809 57.7868 49.9884 58.2522 49.0181C58.4719 48.5687 58.6206 48.0998 58.556 47.5854C58.4267 46.5108 57.496 45.9964 56.5652 46.4913C56.4554 46.5499 56.3455 46.6215 56.2356 46.6802C54.5293 47.657 53.4111 49.2525 52.1249 50.6657C51.2524 51.623 50.2312 52.3719 49.21 53.1404C49.0419 53.2641 48.8222 53.4009 48.6089 53.225C48.4279 53.0752 48.4861 52.8538 48.5442 52.6585C48.6606 52.2742 48.7575 51.877 48.9191 51.5123C49.7852 49.5912 50.7935 47.7482 51.8276 45.9182C52.7777 44.2315 53.8248 42.5904 54.4323 40.7214C54.6133 40.1679 54.665 39.6143 54.5099 39.0477C54.2966 38.2728 53.7795 37.9211 53.0298 38.1686C51.3623 38.7221 50.173 39.8162 49.6365 41.5354C49.5137 41.9262 49.3715 42.2844 49.1647 42.636C48.3245 44.0557 47.3937 45.4103 46.463 46.7713C45.9266 47.5528 45.3578 48.3213 44.7826 49.0767C44.621 49.2916 44.3624 49.513 44.078 49.3502C43.7613 49.1679 43.8906 48.8357 43.9423 48.5492C43.9682 48.4255 44.0263 48.3017 44.091 48.1975C44.3301 47.8393 44.4465 47.4421 44.5628 47.0318C45.1057 45.1498 45.6422 43.2612 46.2045 41.3857C46.7151 39.6859 46.9348 37.9146 47.5166 36.2279C47.8268 35.3292 47.1998 34.3068 46.3273 33.9551C45.4741 33.6165 44.6016 33.9226 44.078 34.7887C43.8712 35.1273 43.7096 35.505 43.5545 35.8763C42.7983 37.7062 42.1584 39.5752 41.5121 41.4443C40.7688 43.5933 40.0578 45.7554 38.8427 47.6961C38.707 47.911 38.5907 48.2887 38.2804 48.191C38.009 48.1064 38.1188 47.7417 38.1188 47.4942C38.1188 44.8828 38.6359 42.3234 38.9332 39.738C39.1207 38.1295 39.1013 36.5275 38.8427 34.9189C38.7199 34.1635 38.274 33.8119 37.6147 33.636C36.9684 33.4602 36.4836 33.7402 36.057 34.1896C35.5917 34.678 35.3525 35.2967 35.1198 35.9153C34.6739 37.1071 34.5834 38.377 34.3572 39.6143C33.9629 41.7959 33.4911 43.958 33.0128 46.1266C32.3471 49.1483 31.3517 52.0528 29.6583 54.6707C29.2059 55.3676 28.6242 55.8886 27.8098 56.123C26.097 56.6179 24.6169 56.123 23.2919 55.0289C22.6456 54.4884 22.122 53.8242 21.5533 53.2055C20.0279 51.5514 18.4508 49.9493 16.5442 48.725C16.0853 48.4255 15.5876 48.2822 15.0511 48.2626C14.1721 48.2301 13.6033 48.7771 13.5904 49.6693C13.571 50.7959 14.0558 51.6881 14.8572 52.4305C15.0059 52.5673 15.1804 52.6715 15.2644 52.8668C15.9172 54.4298 17.0418 55.6736 18.0243 57.0087C18.6383 57.8553 19.2071 58.7149 19.4785 59.7503Z" fill="#00205B"/>
<path d="M11.6328 42.7858C11.607 42.8054 11.5488 43.0072 11.4583 43.3329C10.9671 45.1237 9.66797 50.6592 9.66797 50.6592L24.663 55.9081C24.663 55.9081 24.0619 45.534 24.0619 45.1758C24.0619 44.8177 11.6328 42.7858 11.6328 42.7858Z" fill="#FBB03B"/>
</g>
<defs>
<clipPath id="clip0_2059_1777">
<rect width="72.1698" height="90" fill="white"/>
</clipPath>
</defs>
</svg>
