<svg width="88" height="68" viewBox="0 0 88 68" fill="none" xmlns="http://www.w3.org/2000/svg">
<path fill-rule="evenodd" clip-rule="evenodd" d="M69.9378 0C56.9564 3.25968 48.7804 8.83788 44.8567 15.8795L46.7408 14.594C51.9149 11.0703 57.4289 8.73458 63.5191 7.28838C65.6452 6.78336 67.7886 6.39885 69.9435 6.08895V0H69.9378ZM44.0039 17.8824V68L59.7106 56.1951C59.0422 55.8221 58.4833 55.6671 56.4955 54.8522C55.0435 54.2554 51.0448 52.7977 49.8925 52.2238C47.484 51.0187 48.9014 49.056 51.2523 49.7791C53.7529 50.5423 56.628 51.977 59.1402 52.3788C59.5723 52.4476 60.062 52.5337 60.16 51.977C60.3559 51.0646 57.861 50.1463 56.8585 49.6872C53.9257 48.3443 52.4507 47.7245 49.4142 46.1406C48.3944 45.6126 46.2741 44.7518 46.5103 43.2826C46.8387 41.2511 48.9994 42.5481 49.9789 42.967C51.2177 43.5007 52.4622 44.109 53.7241 44.6198C55.7522 45.4347 57.377 46.2956 59.3188 47.2425C60.0736 47.6098 60.5345 48.0574 61.249 47.5065C61.2144 46.6743 60.3847 46.3013 59.6702 45.7389C57.8841 44.3156 49.8752 38.6743 49.3912 37.5725C48.815 36.2755 49.9962 34.2554 52.4968 36.0287C55.0435 37.8307 58.2528 40.4362 60.8226 42.3989C61.4967 42.9154 62.1651 43.4319 62.845 43.9426C63.7093 44.5968 64.7003 44.5108 64.1184 43.2654C63.0006 40.8608 58.1607 35.7303 56.5473 33.1019C55.9654 32.155 55.8905 31.3343 56.9852 30.7547C58.9039 29.7389 61.4103 33.6298 63.1965 35.6557C64.7522 37.4232 66.4288 39.5294 68.1516 41.4175C68.7508 42.0717 69.3501 42.6858 69.9551 43.2597V11.8852C62.4071 12.4878 54.9974 14.0603 47.7606 16.5739L45.3983 17.4003L48.2792 19.363L44.0039 17.8824Z" fill="#74D2E7"/>
<path fill-rule="evenodd" clip-rule="evenodd" d="M18.0683 0C31.0554 3.25968 39.2198 8.83788 43.1494 15.8795L41.2653 14.594C36.0912 11.0703 30.5771 8.73458 24.4984 7.28838C22.3666 6.78336 20.2174 6.39885 18.074 6.08895V0H18.0683ZM44.0021 17.8824V68L18.074 48.5165V48.0402C21.7501 46.7145 20.5862 47.0818 24.2507 46.6112C25.7372 46.4161 29.7647 46.066 30.9689 45.8192C33.4811 45.3142 32.6744 43.1564 30.3351 43.231C27.846 43.3228 24.8384 43.9254 22.4299 43.6786C22.0209 43.6385 21.5426 43.5868 21.6002 43.0646C21.6348 42.175 24.1642 41.9512 25.1956 41.7733C28.2263 41.2568 29.7359 41.0502 32.9222 40.3501C33.9939 40.109 36.1546 39.8508 36.2986 38.439C36.5003 36.4878 34.2013 37.142 33.193 37.2913C31.9196 37.4749 30.6232 37.7331 29.3383 37.8881C27.2756 38.1406 25.5644 38.5251 23.5477 38.9211C22.7641 39.0703 22.2225 39.363 21.7097 38.6915C21.9517 37.934 22.8102 37.802 23.5938 37.4577C25.5932 36.5911 34.3626 33.3773 35.0771 32.4935C35.9298 31.4433 35.3421 29.2913 32.6053 30.307C29.8108 31.34 26.2212 32.9354 23.3634 34.1062C22.6086 34.4161 21.871 34.7202 21.1278 35.0244C20.1713 35.4089 19.2782 35.0875 20.131 34.0832C21.7558 32.1492 27.483 28.6313 29.6149 26.6169C30.387 25.8881 30.6578 25.1478 29.7993 24.3443C28.2839 22.9383 25.017 25.8938 22.8678 27.3171C21.3525 28.3099 19.7161 29.5036 18.0625 30.6169V11.8852C25.6047 12.4878 33.0201 14.0603 40.2512 16.5739L42.6135 17.4003L39.7326 19.363L44.0021 17.8824Z" fill="#74D2E7"/>
<path fill-rule="evenodd" clip-rule="evenodd" d="M80.1712 6.14059C69.241 7.08177 58.3051 8.0746 47.375 15.5237C58.0343 11.8106 68.9933 10.1521 80.1712 10.5481V6.14059Z" fill="#48A9C5"/>
<path fill-rule="evenodd" clip-rule="evenodd" d="M7.83203 6.14059C18.7679 7.08177 29.6981 8.0746 40.6282 15.5237C29.9689 11.8106 19.0157 10.1521 7.83203 10.5481V6.14059Z" fill="#48A9C5"/>
<path fill-rule="evenodd" clip-rule="evenodd" d="M88.0015 12.2812C72.364 10.3931 58.1669 12.5337 45.007 17.5782H42.9961C42.9961 25.1535 42.9961 53.1363 42.9961 68C42.9961 68 44.3732 68 45.007 68C53.3385 65.3314 61.7911 63.495 70.3877 62.7202C67.9274 61.934 65.4268 60.1263 63.4447 58.7375C63.2776 58.6112 63.1048 58.4907 62.9377 58.3816C58.8756 55.5639 60.27 56.4075 56.4902 54.8465C55.044 54.2554 51.0453 52.7977 49.893 52.2238C47.4845 51.0187 48.9019 49.056 51.2528 49.7791C53.7534 50.5423 56.6285 51.9771 59.1407 52.3788C59.5728 52.4476 60.0626 52.5337 60.1605 51.9771C60.3564 51.0646 57.8615 50.1464 56.859 49.6872C53.9262 48.3443 52.4512 47.7245 49.4147 46.1406C48.3949 45.6126 46.2746 44.7518 46.5108 43.2827C46.8392 41.2511 48.9999 42.5481 49.9794 42.967C51.2182 43.5007 52.4627 44.1091 53.7246 44.6198C55.7527 45.4347 57.3775 46.2956 59.3193 47.2425C60.0741 47.6098 60.535 48.0574 61.2495 47.5065C61.2149 46.6743 60.3852 46.3013 59.6707 45.7389C57.8846 44.3157 49.8757 38.6743 49.3917 37.5725C48.8155 36.2755 49.9967 34.2554 52.4973 36.0287C55.044 37.8307 58.2533 40.4362 60.8231 42.3989C61.4972 42.9154 62.1656 43.4319 62.8455 43.9426C63.7098 44.5969 64.7008 44.5108 64.1189 43.2654C63.0011 40.8608 58.1612 35.7303 56.5478 33.1019C55.9659 32.155 55.891 31.3343 56.9857 30.7547C58.9044 29.7389 61.4108 33.6299 63.197 35.6557C64.7527 37.4233 66.4293 39.5294 68.1521 41.4175C69.1316 42.4907 70.1284 43.4835 71.1367 44.3042C71.7648 44.8149 72.6233 45.5667 73.2974 45.6012C74.4959 45.6758 74.6457 44.5567 74.6457 43.9254C74.6745 39.0187 72.8941 36.6313 73.8102 34.2669C74.6745 32.0402 76.0343 31.4376 76.9907 34.1808C78.7711 39.2769 79.0477 44.0517 81.1277 49.0732C81.4158 49.7905 81.6117 50.6227 81.7384 51.4433L88.013 55.5409V12.2812H88.0015Z" fill="#005670"/>
<path fill-rule="evenodd" clip-rule="evenodd" d="M0 12.2812C15.6375 10.3931 29.8346 12.5337 42.9946 17.5782C42.9946 34.3874 42.9946 51.1908 42.9946 68C29.0452 63.5294 14.7675 61.4003 0 62.703V53.7791L7.24835 50.1923C10.1408 50.9957 14.0242 49.5036 16.8878 48.4591C17.078 48.3903 17.2681 48.3271 17.441 48.264C21.8718 46.6743 20.391 47.099 24.2457 46.6112C25.7322 46.4161 29.7597 46.066 30.9639 45.8192C33.4761 45.3142 32.6694 43.1564 30.3301 43.231C27.841 43.3228 24.8334 43.9254 22.4249 43.6786C22.0158 43.6385 21.5376 43.5868 21.5952 43.0646C21.6298 42.175 24.1592 41.9512 25.1906 41.7733C28.2213 41.2568 29.7309 41.0502 32.9172 40.3501C33.9889 40.109 36.1495 39.8508 36.2936 38.439C36.4953 36.4878 34.1963 37.1421 33.188 37.2913C31.9146 37.4749 30.6182 37.7332 29.3333 37.8881C27.2706 38.1406 25.5594 38.5251 23.5427 38.9211C22.7591 39.0703 22.2175 39.363 21.7047 38.6915C21.9467 37.934 22.8052 37.802 23.5888 37.4577C25.5882 36.5911 34.3576 33.3773 35.0721 32.4936C35.9248 31.4433 35.3371 29.2913 32.6003 30.307C29.8058 31.34 26.2162 32.9354 23.3583 34.1062C22.6035 34.4161 21.866 34.7202 21.1228 35.0244C20.1663 35.4089 19.2732 35.0875 20.126 34.0832C21.7508 32.1492 27.478 28.6313 29.6099 26.6169C30.382 25.8881 30.6528 25.1478 29.7943 24.3443C28.2789 22.9383 25.012 25.8938 22.8628 27.3171C20.996 28.5509 18.939 30.0775 16.8763 31.3802C15.7124 32.1205 14.5486 32.7977 13.4192 33.3027C12.7163 33.6184 11.7368 34.089 11.1088 33.9627C9.99097 33.7332 10.1235 32.6715 10.2791 32.0861C11.4775 27.5696 13.7073 25.8192 13.4538 23.4146C13.2233 21.1535 12.1228 20.2697 10.5556 22.5596C7.65167 26.8006 6.21122 31.1162 3.04799 35.2253C2.60433 35.8049 2.21253 36.528 1.89563 37.2453L0 37.8594V12.2812Z" fill="#005670"/>
<path d="M45.007 17.5782H42.9961V68H45.007V17.5782Z" fill="#005C78"/>
</svg>
