<svg width="88" height="102" viewBox="0 0 88 102" fill="none" xmlns="http://www.w3.org/2000/svg">
<path fill-rule="evenodd" clip-rule="evenodd" d="M0 44.1517C14.6701 37.4711 29.3333 37.5782 44.0035 44.1517C58.6667 37.5782 73.3368 37.4711 88 44.1517C88 63.4368 88 82.722 88 102C73.0303 95.1267 58.3811 95.6192 44.0035 102C29.6189 95.6192 14.9697 95.1267 0 102C0 82.722 0 63.4368 0 44.1517Z" fill="#00205B"/>
<path fill-rule="evenodd" clip-rule="evenodd" d="M0 38.8772C14.6701 32.1966 29.3333 32.2894 44.0035 38.8772C44.0035 58.1552 44.0035 77.4403 44.0035 96.7255C29.6189 90.3447 14.9697 89.8522 0 96.7255C0 77.4403 0 58.1552 0 38.8772Z" fill="#1C79C0"/>
<path fill-rule="evenodd" clip-rule="evenodd" d="M88.0004 38.8772C73.3372 32.1966 58.6671 32.2894 44.0039 38.8772C44.0039 58.1552 44.0039 77.4403 44.0039 96.7255C58.3815 90.3447 73.0307 89.8522 88.0004 96.7255C88.0004 77.4403 88.0004 58.1552 88.0004 38.8772Z" fill="#1C79C0"/>
<path fill-rule="evenodd" clip-rule="evenodd" d="M79.7319 24.7381C59.0015 26.6152 54.1532 31.9897 44.0039 38.5988C44.0039 57.9768 44.0039 77.3476 44.0039 96.7326C53.9512 90.3161 60.7708 85.3414 79.7319 82.8719C79.7319 63.4939 79.7319 44.116 79.7319 24.7381Z" fill="#0DD3FF"/>
<path fill-rule="evenodd" clip-rule="evenodd" d="M44.0034 85.8767C11.828 73.1722 -8.97212 34.4235 5.46119 0C4.09588 52.5595 36.0205 31.8398 60.5962 13.8964C33.8959 47.285 24.6383 61.9594 44.0034 85.8767Z" fill="#FBB03B"/>
<path fill-rule="evenodd" clip-rule="evenodd" d="M22.8701 28.528C27.4327 28.528 31.1386 24.6738 31.1386 19.9418C31.1386 15.2097 27.4258 11.3555 22.8701 11.3555C18.3214 11.3555 14.6016 15.2097 14.6016 19.9418C14.5946 24.6738 18.3144 28.528 22.8701 28.528Z" fill="#FBB03B"/>
</svg>
