<svg width="21" height="21" viewBox="0 0 21 21" fill="none" xmlns="http://www.w3.org/2000/svg">
<path d="M0.875073 8.74898C0.642989 8.74898 0.420411 8.65678 0.256303 8.49268C0.0921951 8.32857 0 8.10599 0 7.87391V0.875073C0 0.642989 0.0921951 0.420411 0.256303 0.256303C0.420411 0.0921951 0.642989 0 0.875073 0H7.87566C8.10774 0 8.33032 0.0921951 8.49443 0.256303C8.65853 0.420411 8.75073 0.642989 8.75073 0.875073V7.87391C8.75073 8.10599 8.65853 8.32857 8.49443 8.49268C8.33032 8.65678 8.10774 8.74898 7.87566 8.74898H0.875073ZM13.1261 8.74898C12.894 8.74898 12.6714 8.65678 12.5073 8.49268C12.3432 8.32857 12.251 8.10599 12.251 7.87391V0.875073C12.251 0.642989 12.3432 0.420411 12.5073 0.256303C12.6714 0.0921951 12.894 0 13.1261 0H20.1249C20.357 0 20.5796 0.0921951 20.7437 0.256303C20.9078 0.420411 21 0.642989 21 0.875073V7.87391C21 8.10599 20.9078 8.32857 20.7437 8.49268C20.5796 8.65678 20.357 8.74898 20.1249 8.74898H13.1261ZM0.875073 21C0.642989 21 0.420411 20.9078 0.256303 20.7437C0.0921951 20.5796 0 20.357 0 20.1249V13.1243C0 12.8923 0.0921951 12.6697 0.256303 12.5056C0.420411 12.3415 0.642989 12.2493 0.875073 12.2493H7.87566C8.10774 12.2493 8.33032 12.3415 8.49443 12.5056C8.65853 12.6697 8.75073 12.8923 8.75073 13.1243V20.1249C8.75073 20.357 8.65853 20.5796 8.49443 20.7437C8.33032 20.9078 8.10774 21 7.87566 21H0.875073ZM13.1261 21C12.894 21 12.6714 20.9078 12.5073 20.7437C12.3432 20.5796 12.251 20.357 12.251 20.1249V13.1243C12.251 12.8923 12.3432 12.6697 12.5073 12.5056C12.6714 12.3415 12.894 12.2493 13.1261 12.2493H20.1249C20.357 12.2493 20.5796 12.3415 20.7437 12.5056C20.9078 12.6697 21 12.8923 21 13.1243V20.1249C21 20.357 20.9078 20.5796 20.7437 20.7437C20.5796 20.9078 20.357 21 20.1249 21H13.1261Z" fill="white"/>
</svg>
