<svg width="37" height="37" viewBox="0 0 37 37" fill="none" xmlns="http://www.w3.org/2000/svg">
<path d="M18.4216 0.888672C8.65311 0.888672 0.734375 8.80741 0.734375 18.5759C0.734375 28.3445 8.65311 36.2632 18.4216 36.2632C28.1902 36.2632 36.1089 28.3445 36.1089 18.5759C36.1089 8.80741 28.1902 0.888672 18.4216 0.888672ZM25.6163 15.3775C25.6237 15.5286 25.6255 15.6797 25.6255 15.827C25.6255 20.4331 22.1231 25.7411 15.7151 25.7411C13.8217 25.7443 11.9676 25.2005 10.3758 24.1751C10.6466 24.2082 10.9248 24.2211 11.2067 24.2211C12.8391 24.2211 14.3407 23.6666 15.5327 22.7306C14.8063 22.7163 14.1024 22.4758 13.5192 22.0425C12.9359 21.6092 12.5024 21.0047 12.279 20.3134C12.8007 20.4125 13.3381 20.3918 13.8506 20.2526C13.0621 20.0931 12.3531 19.6659 11.8437 19.0433C11.3342 18.4207 11.0558 17.6411 11.0556 16.8367V16.7943C11.5255 17.0541 12.0634 17.2126 12.6346 17.231C11.8954 16.7389 11.3721 15.983 11.1718 15.118C10.9714 14.2529 11.1092 13.3439 11.5568 12.577C12.4318 13.653 13.5231 14.5332 14.76 15.1607C15.9968 15.7881 17.3516 16.1488 18.7367 16.2195C18.5606 15.472 18.6364 14.6873 18.9523 13.9874C19.2682 13.2875 19.8065 12.7115 20.4835 12.349C21.1604 11.9866 21.9382 11.858 22.6959 11.9831C23.4535 12.1083 24.1486 12.4803 24.673 13.0413C25.4527 12.887 26.2003 12.6011 26.8839 12.1956C26.6241 13.0029 26.08 13.6883 25.3528 14.1246C26.0435 14.0415 26.7178 13.8558 27.3537 13.5738C26.8866 14.2737 26.2983 14.8845 25.6163 15.3775Z" fill="white"/>
</svg>
