<svg width="17" height="23" viewBox="0 0 17 23" fill="none" xmlns="http://www.w3.org/2000/svg">
<path d="M8.34829 0.573486C9.40948 0.590965 10.4203 1.02904 11.1587 1.79145C11.897 2.55385 12.3025 3.57821 12.2859 4.63941V9.66742C12.3025 10.7286 11.897 11.753 11.1587 12.5154C10.4203 13.2778 9.40948 13.7159 8.34829 13.7333C7.28711 13.7159 6.27627 13.2778 5.53791 12.5154C4.79956 11.753 4.39411 10.7286 4.41064 9.66742V4.63941C4.39411 3.57821 4.79956 2.55385 5.53791 1.79145C6.27627 1.02904 7.28711 0.590965 8.34829 0.573486Z" fill="white" stroke="white" stroke-linecap="round" stroke-linejoin="round"/>
<path d="M0.945312 11.6026C1.2525 13.3417 2.16248 14.9171 3.51551 16.052C4.86853 17.187 6.57813 17.8091 8.34416 17.8091C10.1102 17.8091 11.8198 17.187 13.1728 16.052C14.5258 14.9171 15.4358 13.3417 15.743 11.6026H0.945312Z" fill="white"/>
<path d="M8.34416 17.8057V21.5785M0.945312 11.6026C1.2525 13.3417 2.16248 14.9171 3.51551 16.052C4.86853 17.187 6.57813 17.8091 8.34416 17.8091C10.1102 17.8091 11.8198 17.187 13.1728 16.052C14.5258 14.9171 15.4358 13.3417 15.743 11.6026H0.945312Z" stroke="white" stroke-linecap="round" stroke-linejoin="round"/>
</svg>
