<svg width="115" height="94" viewBox="0 0 115 94" fill="none" xmlns="http://www.w3.org/2000/svg">
<path d="M62.9741 21.7359C63.7443 24.108 55.4121 29.1473 44.3555 32.9939C33.3053 36.834 23.7001 38.0266 22.9299 35.6544C22.1469 33.2757 30.4791 28.2364 41.542 24.3964C52.5922 20.5498 62.1911 19.3637 62.9741 21.7359Z" fill="#221815"/>
<path fill-rule="evenodd" clip-rule="evenodd" d="M70.2214 29.7632C61.8065 16.3165 45.0148 35.0384 30.3555 36.5521C30.3555 55.5558 30.3555 74.566 30.3555 93.5697C42.0486 92.6195 65.6957 76.7613 70.2214 86.7808C70.2214 67.7706 70.2214 48.7669 70.2214 29.7632Z" fill="#005670"/>
<path fill-rule="evenodd" clip-rule="evenodd" d="M70.2136 29.7632C61.3467 15.4646 40.8886 26.4016 25.4336 26.4212C25.4336 45.4249 25.4336 64.4351 25.4336 83.4388C37.7632 83.6813 65.4396 76.3026 70.2136 86.7809C70.2136 67.7706 70.2136 48.7669 70.2136 29.7632Z" fill="#48A9C5"/>
<path fill-rule="evenodd" clip-rule="evenodd" d="M70.214 29.7632C61.3472 15.4646 47.7636 17.7057 32.3086 17.7254C32.3086 36.7291 32.3086 55.7393 32.3086 74.743C44.6382 74.9789 65.4401 76.3026 70.214 86.7808C70.214 67.7706 70.214 48.7669 70.214 29.7632Z" fill="#74D2E7"/>
<path fill-rule="evenodd" clip-rule="evenodd" d="M70.2188 29.7632C78.6337 16.3165 95.4254 35.0384 110.091 36.5521C110.091 55.5558 110.091 74.566 110.091 93.5697C98.3916 92.6195 74.7445 76.7613 70.2188 86.7808C70.2188 67.7706 70.2188 48.7669 70.2188 29.7632Z" fill="#005670"/>
<path fill-rule="evenodd" clip-rule="evenodd" d="M70.2188 29.7632C79.0856 15.4646 99.5501 26.4016 114.999 26.4212C114.999 45.4249 114.999 64.4351 114.999 83.4388C102.669 83.6813 74.9991 76.3026 70.2188 86.7809C70.2188 67.7706 70.2188 48.7669 70.2188 29.7632Z" fill="#48A9C5"/>
<path fill-rule="evenodd" clip-rule="evenodd" d="M70.2188 29.7632C79.0856 15.4646 92.6692 17.7057 108.124 17.7254C108.124 36.7291 108.124 55.7393 108.124 74.743C95.7946 74.9789 74.9991 76.3026 70.2188 86.7808C70.2187 67.7706 70.2188 48.7669 70.2188 29.7632Z" fill="#9DDAE7"/>
<path d="M34.169 5.76615L0 26.5916L39.4395 21.8406L73.6022 1.01523L34.169 5.76615Z" fill="#100D0C"/>
<path d="M37.4084 11.795C26.3519 15.635 18.0197 20.6743 18.7963 23.0464L22.9273 35.6479C22.1508 33.2757 30.483 28.2364 41.5459 24.3964C52.5961 20.5498 62.2013 19.3571 62.9779 21.7293L58.8405 9.12788C58.0639 6.7557 48.4714 7.94835 37.4084 11.795Z" fill="#282324"/>
<path fill-rule="evenodd" clip-rule="evenodd" d="M70.2171 0.477905C70.5417 0.477905 70.8091 0.746578 70.8091 1.08733V43.3148C70.8091 43.649 70.5353 43.9177 70.2171 43.9177C69.8925 43.9177 69.6251 43.649 69.6251 43.3148V1.08733C69.6187 0.746578 69.8925 0.477905 70.2171 0.477905Z" fill="#282324"/>
<path fill-rule="evenodd" clip-rule="evenodd" d="M70.2239 1.1987C70.2112 1.15282 69.9374 0.543396 69.9374 0.543396L66.9648 1.81468L69.6128 1.49358L70.2239 1.1987Z" fill="#282324"/>
<path fill-rule="evenodd" clip-rule="evenodd" d="M70.2124 42.3319C71.2818 42.3319 72.1475 42.9937 72.1475 43.7998C72.1475 44.075 72.0456 44.324 71.8865 44.5402V54.2714C71.8865 54.468 71.7337 54.6253 71.5491 54.6253C71.3645 54.6253 71.2118 54.468 71.2118 54.2714V45.0645C71.1417 45.0972 71.0717 45.1235 71.0017 45.1431V54.2976C71.0017 54.4877 70.8489 54.645 70.658 54.645C70.4734 54.645 70.3206 54.4877 70.3206 54.2976V45.2742C70.2888 45.2742 70.2506 45.2742 70.2124 45.2742C70.1806 45.2742 70.1424 45.2742 70.1042 45.2742V54.3239C70.1042 54.5139 69.9514 54.6712 69.7668 54.6712C69.5822 54.6712 69.4295 54.5139 69.4295 54.3239V45.1497C69.3595 45.13 69.2831 45.1038 69.2194 45.071V54.3566C69.2194 54.5467 69.0666 54.7039 68.8757 54.7039C68.6911 54.7039 68.5383 54.5467 68.5383 54.3566V44.5402C68.3728 44.324 68.2773 44.0684 68.2773 43.7998C68.2773 42.9872 69.143 42.3319 70.2124 42.3319Z" fill="#221815" stroke="#221815" stroke-width="0.2075" stroke-miterlimit="10"/>
</svg>
