<svg width="100" height="73" viewBox="0 0 100 73" fill="none" xmlns="http://www.w3.org/2000/svg">
<path d="M61.858 0.32267C59.5755 1.49594 58.5942 4.1198 59.5968 6.27435C59.8741 6.85032 63.9699 11.0741 72.1828 19.287C78.8811 25.964 84.3635 31.5103 84.3635 31.5957C84.3635 31.7023 66.1671 31.7663 43.939 31.7663C7.93024 31.7663 3.40782 31.809 2.70386 32.0863C-0.901285 33.6009 -0.901285 38.8913 2.70386 40.4059C3.40782 40.6832 7.93024 40.7258 43.939 40.7258C66.1671 40.7258 84.3635 40.7898 84.3635 40.8752C84.3635 40.9605 78.7531 46.6562 71.9055 53.5252L59.4475 66.0045L59.2128 67.1778C58.5089 70.5909 61.538 73.4068 64.9085 72.5108C65.8472 72.2548 66.9991 71.1456 82.5076 55.6797C92.6831 45.5469 99.296 38.7846 99.552 38.2726C100.149 37.1207 100.149 35.3715 99.552 34.2195C98.8907 32.9609 66.5724 0.727982 65.5485 0.301338C64.5246 -0.103973 62.6687 -0.103973 61.858 0.32267Z" fill="black"/>
</svg>
