<svg width="102" height="76" viewBox="0 0 102 76" fill="none" xmlns="http://www.w3.org/2000/svg">
<path d="M39.9441 74.6105C42.2 73.3869 43.1229 70.7419 42.0727 68.6101C41.7826 68.0404 37.5942 63.9086 29.201 55.8799C22.3562 49.3532 16.7521 43.9299 16.7503 43.8446C16.7479 43.7379 34.9383 43.2702 57.161 42.777C93.1609 41.978 97.6813 41.835 98.3789 41.5421C101.95 39.9479 101.832 34.6588 98.1943 33.2246C97.4844 32.963 92.9621 33.0207 56.9622 33.8197C34.7395 34.3129 16.5462 34.6526 16.5444 34.5673C16.5425 34.482 22.0251 28.6632 28.7186 21.644L40.8966 8.89135L41.1052 7.71316C41.7333 4.28523 38.6423 1.53728 35.2926 2.5078C34.3599 2.78455 33.2328 3.91911 18.0713 19.7253C8.12319 30.0813 1.66188 36.9887 1.41732 37.5062C0.845722 38.6711 0.884535 40.42 1.50725 41.5584C2.19631 42.802 35.2218 74.3099 36.255 74.7137C37.2877 75.0962 39.1431 75.055 39.9441 74.6105Z" fill="black"/>
</svg>
